<?xml version="1.0" encoding="UTF-8" standalone="no"?><!DOCTYPE svg PUBLIC "-//W3C//DTD SVG 1.1//EN" "http://www.w3.org/Graphics/SVG/1.1/DTD/svg11.dtd"><svg width="100%" height="100%" viewBox="0 0 26 26" version="1.1" xmlns="http://www.w3.org/2000/svg" xmlns:xlink="http://www.w3.org/1999/xlink" xml:space="preserve" style="fill-rule:evenodd;clip-rule:evenodd;stroke-miterlimit:10;"><path d="M20.904,7.498l-8.467,12.418c-0.282,0.423 -0.705,0.565 -0.988,0.565c-0.423,0 -0.846,-0.283 -1.128,-0.424l-4.939,-4.939c-0.283,-0.282 -0.283,-0.846 0,-1.27l1.27,-1.27c0.282,-0.282 0.846,-0.282 1.129,0.141l3.245,3.246l6.915,-10.301c0.282,-0.424 0.846,-0.424 1.129,-0.283l1.411,0.988c0.564,0.282 0.705,0.706 0.423,1.129Z" style="fill:#51a7f9;fill-rule:nonzero;"/><path d="M20,24l-14,0c-2.2,0 -4,-1.8 -4,-4l0,-14c0,-2.2 1.8,-4 4,-4l14,0c2.2,0 4,1.8 4,4l0,14c0,2.2 -1.8,4 -4,4Z" style="fill:none;stroke:#51a7f9;stroke-width:2px;"/></svg>