<?xml version="1.0" encoding="UTF-8" standalone="no"?><!DOCTYPE svg PUBLIC "-//W3C//DTD SVG 1.1//EN" "http://www.w3.org/Graphics/SVG/1.1/DTD/svg11.dtd"><svg width="100%" height="100%" viewBox="0 0 50 50" version="1.1" xmlns="http://www.w3.org/2000/svg" xmlns:xlink="http://www.w3.org/1999/xlink" xml:space="preserve" style="fill-rule:evenodd;clip-rule:evenodd;stroke-miterlimit:10;"><circle cx="24.897" cy="24.856" r="23.457" style="fill:#51a7f9;fill-opacity:0;stroke:#51a7f9;stroke-width:1.4px;"/><g><g><path d="M22.444,33.264l-7.85,2.304l2.304,-7.849" style="fill:none;stroke:#51a7f9;stroke-width:1.95px;stroke-linecap:round;stroke-linejoin:round;stroke-miterlimit:1.41421;"/><path d="M15.4,31.814l-0.86,2.931c-0.072,0.249 -0.004,0.517 0.178,0.7c0.135,0.134 0.316,0.207 0.5,0.207c0.067,0 0.135,-0.01 0.2,-0.029l2.931,-0.86l-2.949,-2.949Z" style="fill:#51a7f9;fill-rule:nonzero;"/><path d="M18.681,29.488l1.597,0.358l0.23,1.468l10.994,-10.984l-1.826,-1.828l-10.995,10.986Z" style="fill:#51a7f9;fill-rule:nonzero;stroke:#51a7f9;stroke-width:1px;stroke-linejoin:round;stroke-miterlimit:1.41421;"/><path d="M32.708,21.513l-11.079,11.069l1.423,1.424l11.123,-11.026l-1.467,-1.467Z" style="fill:#51a7f9;fill-rule:nonzero;"/><path d="M28.591,17.395l-1.311,-1.309l-11.122,11.024l1.354,1.354l11.079,-11.069Z" style="fill:#51a7f9;fill-rule:nonzero;"/></g><path d="M35.198,21.513l-6.607,-6.608l1.014,-1.025c0.902,-0.902 2.373,-0.895 3.285,0.018l3.305,3.304c0.912,0.913 0.92,2.384 0.018,3.286l-1.015,1.025Z" style="fill:#51a7f9;fill-rule:nonzero;"/></g></svg>