<?xml version="1.0" encoding="UTF-8" standalone="no"?>
<!DOCTYPE svg PUBLIC "-//W3C//DTD SVG 1.1//EN" "http://www.w3.org/Graphics/SVG/1.1/DTD/svg11.dtd">
<svg width="100%" height="100%" viewBox="0 0 50 50" version="1.1" xmlns="http://www.w3.org/2000/svg" xmlns:xlink="http://www.w3.org/1999/xlink" xml:space="preserve" style="fill-rule:evenodd;clip-rule:evenodd;stroke-linejoin:round;stroke-miterlimit:1.41421;">
    <path d="M38.462,47.23L9.615,47.23C9.615,47.23 1.923,47.322 1.923,39.484C1.923,31.644 1.923,3.769 1.923,3.769" style="fill:none;stroke-width:2px;stroke:black;"/>
    <path d="M48.077,39.539C48.077,47.234 41.385,47.23 41.385,47.23C41.385,47.23 33.693,47.203 33.693,39.484C33.693,31.765 33.693,3.769 33.693,3.769L1.923,3.769C1.923,3.769 1.923,31.644 1.923,39.484C1.923,47.322 9.615,47.23 9.615,47.23L40.385,47.23" style="fill:none;stroke-width:2px;stroke:white;"/>
    <path d="M40.385,38.615L40.385,14.385C40.385,14.385 40.475,10.539 44.231,10.539C47.987,10.539 48.078,14.439 48.078,14.439L48.078,39.539" style="fill:none;stroke-width:2px;stroke-linecap:round;stroke:white;"/>
    <path d="M44.23,10.495L34.756,10.495" style="fill:none;stroke-width:2px;stroke:white;"/>
    <path d="M7.692,28L14.462,28" style="fill:none;stroke-width:2px;stroke-linecap:round;stroke:white;"/>
    <path d="M7.692,24L14.462,24" style="fill:none;stroke-width:2px;stroke-linecap:round;stroke:white;"/>
    <path d="M7.692,32L14.462,32" style="fill:none;stroke-width:2px;stroke-linecap:round;stroke:white;"/>
    <path d="M7.692,36L14.462,36" style="fill:none;stroke-width:2px;stroke-linecap:round;stroke:white;"/>
    <path d="M7.692,40L14.462,40" style="fill:none;stroke-width:2px;stroke-linecap:round;stroke:white;"/>
    <path d="M19.23,28L26.923,28" style="fill:none;stroke-width:2px;stroke-linecap:round;stroke:white;"/>
    <path d="M19.23,24L26.923,24" style="fill:none;stroke-width:2px;stroke-linecap:round;stroke:white;"/>
    <path d="M7.23,16L26.923,16" style="fill:none;stroke-width:2px;stroke-linecap:round;stroke:white;"/>
    <path d="M7.23,12L26.923,12" style="fill:none;stroke-width:2px;stroke-linecap:round;stroke:white;"/>
    <path d="M19.23,31.77L26.923,31.77" style="fill:none;stroke-width:2px;stroke-linecap:round;stroke:white;"/>
    <path d="M19.23,35.77L26.923,35.77" style="fill:none;stroke-width:2px;stroke-linecap:round;stroke:white;"/>
    <path d="M19.23,39.539L26.923,39.539" style="fill:none;stroke-width:2px;stroke-linecap:round;stroke:white;"/>
</svg>
