<?xml version="1.0" encoding="UTF-8" standalone="no"?>
<!DOCTYPE svg PUBLIC "-//W3C//DTD SVG 1.1//EN" "http://www.w3.org/Graphics/SVG/1.1/DTD/svg11.dtd">
<svg width="100%" height="100%" viewBox="0 0 50 50" version="1.1" xmlns="http://www.w3.org/2000/svg" xmlns:xlink="http://www.w3.org/1999/xlink" xml:space="preserve" style="fill-rule:evenodd;clip-rule:evenodd;stroke-linecap:round;stroke-miterlimit:1.41421;">
    <path d="M18,39L18,43C18,44.1 18.9,45 20,45L30,45C31.1,45 32,44.1 32,43L32,39L18,39Z" style="fill:none;stroke-width:2px;stroke:white;"/>
    <path d="M32,39C32,38 32,34.979 32,33C32,27.615 39,27.432 39,18C39,10.267 32.732,4 25,4C17.268,4 11,10.267 11,18C11,27.633 18,28.692 18,33C18,34.305 18,39 18,39" style="fill:none;stroke-width:2px;stroke-linecap:butt;stroke-linejoin:round;stroke:white;"/>
    <path d="M28,45C28,46.656 26.656,48 25,48C23.344,48 22,46.656 22,45" style="fill:none;stroke-width:2px;stroke:white;"/>
    <path d="M25,23L25,36" style="fill:none;stroke-width:2px;stroke-linecap:butt;stroke:white;"/>
    <path d="M21,19L25,23L29,19" style="fill:none;stroke-width:2px;stroke:white;"/>
</svg>
