<?xml version="1.0" encoding="UTF-8" standalone="no"?>
<!DOCTYPE svg PUBLIC "-//W3C//DTD SVG 1.1//EN" "http://www.w3.org/Graphics/SVG/1.1/DTD/svg11.dtd">
<svg width="100%" height="100%" viewBox="0 0 32 32" version="1.1" xmlns="http://www.w3.org/2000/svg" xmlns:xlink="http://www.w3.org/1999/xlink" xml:space="preserve" style="fill-rule:evenodd;clip-rule:evenodd;stroke-linejoin:round;stroke-miterlimit:1.41421;">
    <path d="M16,3C12.155,3 9,6.155 9,10L9,13L7,13L6,13L6,29L26,29L26,28L26,14L26,13L25,13L23,13L23,10C23,6.155 19.845,3 16,3ZM16,5C18.755,5 21,7.245 21,10L21,13L11,13L11,10C11,7.245 13.245,5 16,5ZM8,15L24,15L24,27L8,27L8,15Z" style="fill:white;fill-rule:nonzero;"/>
</svg>
