<?xml version="1.0" encoding="UTF-8" standalone="no"?>
<!DOCTYPE svg PUBLIC "-//W3C//DTD SVG 1.1//EN" "http://www.w3.org/Graphics/SVG/1.1/DTD/svg11.dtd">
<svg width="100%" height="100%" viewBox="0 0 40 40" version="1.1" xmlns="http://www.w3.org/2000/svg" xmlns:xlink="http://www.w3.org/1999/xlink" xml:space="preserve" style="fill-rule:evenodd;clip-rule:evenodd;stroke-linejoin:round;stroke-miterlimit:1.41421;">
    <g>
        <path d="M20,38.5C9.799,38.5 1.5,30.201 1.5,20C1.5,9.799 9.799,1.5 20,1.5C30.201,1.5 38.5,9.799 38.5,20C38.5,30.201 30.201,38.5 20,38.5Z" style="fill:rgb(247,143,143);fill-rule:nonzero;"/>
        <path d="M20,2C29.925,2 38,10.075 38,20C38,29.925 29.925,38 20,38C10.075,38 2,29.925 2,20C2,10.075 10.075,2 20,2M20,1C9.507,1 1,9.507 1,20C1,30.493 9.507,39 20,39C30.493,39 39,30.493 39,20C39,9.507 30.493,1 20,1Z" style="fill:rgb(199,67,67);fill-opacity:0;fill-rule:nonzero;"/>
    </g>
    <g transform="matrix(1,0,0,0.638842,0,7.50084)">
        <rect x="10" y="18" width="20" height="4" style="fill:white;"/>
    </g>
</svg>
