<?xml version="1.0" encoding="UTF-8" standalone="no"?><!DOCTYPE svg PUBLIC "-//W3C//DTD SVG 1.1//EN" "http://www.w3.org/Graphics/SVG/1.1/DTD/svg11.dtd"><svg width="100%" height="100%" viewBox="0 0 50 50" version="1.1" xmlns="http://www.w3.org/2000/svg" xmlns:xlink="http://www.w3.org/1999/xlink" xml:space="preserve" style="fill-rule:evenodd;clip-rule:evenodd;stroke-miterlimit:1.41421;"><circle cx="25" cy="25" r="21" style="fill:none;stroke:#51a7f9;stroke-width:2px;"/><g><path d="M27.14,35.296c-1.144,0 -2.071,1.005 -2.071,2.225l0,-20.574c0,-1.228 0.927,-2.224 2.071,-2.224l8.283,0c1.144,0 2.071,0.996 2.071,2.224l0,16.125c0,1.229 -0.927,2.224 -2.071,2.224l-8.283,0Z" style="fill:none;stroke:#51a7f9;stroke-width:1.07px;stroke-linecap:round;stroke-linejoin:round;"/><path d="M22.998,35.296c1.144,0 2.071,1.005 2.071,2.225l0,-20.574c0,-1.228 -0.927,-2.224 -2.071,-2.224l-8.284,0c-1.143,0 -2.07,0.996 -2.07,2.224l0,16.125c0,1.229 0.927,2.224 2.07,2.224l8.284,0Z" style="fill:none;stroke:#51a7f9;stroke-width:1.07px;stroke-linecap:round;stroke-linejoin:round;"/><path d="M28.016,22.259l6.531,0" style="fill:none;stroke:#51a7f9;stroke-width:1.01px;stroke-linecap:round;stroke-linejoin:round;"/><path d="M28.016,19.611l6.531,0" style="fill:none;stroke:#51a7f9;stroke-width:1.01px;stroke-linecap:round;stroke-linejoin:round;"/><path d="M15.59,22.259l6.532,0" style="fill:none;stroke:#51a7f9;stroke-width:1.01px;stroke-linecap:round;stroke-linejoin:round;"/><path d="M15.59,19.611l6.532,0" style="fill:none;stroke:#51a7f9;stroke-width:1.01px;stroke-linecap:round;stroke-linejoin:round;"/></g></svg>