<?xml version="1.0" encoding="UTF-8" standalone="no"?><!DOCTYPE svg PUBLIC "-//W3C//DTD SVG 1.1//EN" "http://www.w3.org/Graphics/SVG/1.1/DTD/svg11.dtd"><svg width="100%" height="100%" viewBox="0 0 50 50" version="1.1" xmlns="http://www.w3.org/2000/svg" xmlns:xlink="http://www.w3.org/1999/xlink" xml:space="preserve" style="fill-rule:evenodd;clip-rule:evenodd;stroke-linecap:round;stroke-linejoin:round;stroke-miterlimit:1.41421;"><g><path d="M29.007,43.561c-2.152,0 -3.896,1.996 -3.896,4.419l0,-40.868c0,-2.439 1.744,-4.418 3.896,-4.418l15.582,0c2.152,0 3.896,1.979 3.896,4.418l0,32.031c0,2.441 -1.744,4.418 -3.896,4.418l-15.582,0l0,0Z" style="fill:none;stroke:#fff;stroke-width:2.07px;"/><path d="M21.215,43.561c2.152,0 3.896,1.996 3.896,4.419l0,-40.868c0,-2.439 -1.744,-4.418 -3.896,-4.418l-15.584,0c-2.15,0 -3.894,1.979 -3.894,4.418l0,32.031c0,2.441 1.744,4.418 3.894,4.418l15.584,0Z" style="fill:none;stroke:#fff;stroke-width:2.07px;"/><path d="M30.655,17.664l12.286,0" style="fill:none;stroke:#fff;stroke-width:1.95px;"/><g><path d="M30.655,12.404l12.286,0" style="fill:none;stroke:#fff;stroke-width:1.95px;"/><path d="M30.655,17.664l12.286,0" style="fill:none;stroke:#fff;stroke-width:1.95px;"/><path d="M7.279,17.664l12.288,0" style="fill:none;stroke:#fff;stroke-width:1.95px;"/><path d="M7.279,12.404l12.288,0" style="fill:none;stroke:#fff;stroke-width:1.95px;"/></g><g><path d="M30.655,12.404l12.286,0" style="fill:none;stroke:#fff;stroke-width:1.95px;"/><path d="M30.655,17.664l12.286,0" style="fill:none;stroke:#fff;stroke-width:1.95px;"/><path d="M7.279,17.664l12.288,0" style="fill:none;stroke:#fff;stroke-width:1.95px;"/><path d="M7.279,12.404l12.288,0" style="fill:none;stroke:#fff;stroke-width:1.95px;"/></g><path d="M7.279,17.664l12.288,0" style="fill:none;stroke:#fff;stroke-width:1.95px;"/></g></svg>