<?xml version="1.0" encoding="UTF-8" standalone="no"?><!DOCTYPE svg PUBLIC "-//W3C//DTD SVG 1.1//EN" "http://www.w3.org/Graphics/SVG/1.1/DTD/svg11.dtd"><svg width="100%" height="100%" viewBox="0 0 50 50" version="1.1" xmlns="http://www.w3.org/2000/svg" xmlns:xlink="http://www.w3.org/1999/xlink" xml:space="preserve" style="fill-rule:evenodd;clip-rule:evenodd;stroke-linejoin:round;stroke-miterlimit:1.41421;"><path d="M37.794,4.698c-2.215,0 -3.178,3.935 -1.734,10.337c-1.121,0.385 -2.06,1.106 -2.721,2.033c-0.992,1.392 -1.441,3.177 -1.441,4.971c0,2.547 -0.25,5.175 -0.853,7.511c0,-7.459 -5.883,-13.104 -12.806,-13.104c-6.923,0 -12.989,5.647 -12.805,13.133c0.148,4.192 1.969,8.007 4.855,10.478c-1.478,0.08 -2.871,0.167 -3.949,0.311c-0.603,0.079 -1.107,0.171 -1.547,0.339c-0.22,0.082 -0.43,0.177 -0.641,0.367c-0.21,0.19 -0.427,0.563 -0.427,0.96c0,0.567 0.302,0.992 0.641,1.299c0.338,0.305 0.758,0.543 1.254,0.763c0.991,0.438 2.332,0.811 4.028,1.129c3.394,0.635 8.157,1.044 13.875,1.044c8.44,0 13.055,-3.301 15.366,-7.483c2.21,-3.998 2.363,-8.582 2.375,-11.805c1.926,-1.142 3.44,-3.253 3.44,-5.733c0,-2.822 -1.832,-5.023 -4.187,-5.987c2.344,-8.375 3.892,-3.51 5.629,-5.959c0.598,-0.813 0.191,-1.971 -0.747,-2.512c-2.047,-1.128 -4.504,1.732 -6.056,8.103c-0.486,-0.105 -0.968,-0.168 -1.468,-0.168c-0.244,0 -0.487,0.027 -0.722,0.056c-1.596,-8.664 1.932,-5.205 2.429,-8.191c0.171,-1.083 -0.677,-1.892 -1.788,-1.892l0,0Zm0.081,11.834c2.662,0 5.122,2.031 5.122,4.716c0,1.826 -1.319,3.64 -2.907,4.406c-0.306,0.144 -0.505,0.465 -0.508,0.819c0,3.187 -0.139,7.751 -2.161,11.41c-2.02,3.656 -5.865,6.58 -13.898,6.58c-5.64,0 -10.336,-0.41 -13.582,-1.018c-1.622,-0.303 -2.892,-0.667 -3.68,-1.015c-0.139,-0.062 -0.16,-0.111 -0.267,-0.17c0.194,-0.042 0.302,-0.079 0.56,-0.113c1.085,-0.146 2.645,-0.22 4.322,-0.311c1.677,-0.09 3.49,-0.193 5.122,-0.395c1.624,-0.203 3.049,-0.476 4.136,-1.046c0.005,-0.001 0.02,0.003 0.025,0c0.438,-0.22 0.924,-0.566 1.441,-1.015c0.01,0 0.018,-0.002 0.027,0c2.464,0.137 4.509,-0.462 6.164,-1.554c0.022,-0.016 0.055,-0.013 0.079,-0.028c0.111,-0.045 0.21,-0.111 0.294,-0.198c0.01,-0.008 0.016,-0.021 0.026,-0.029c0.009,-0.009 0.019,-0.017 0.028,-0.028c1.225,-0.911 2.212,-2.114 2.96,-3.501c1.84,-3.411 2.428,-7.842 2.428,-12.003c0,-1.459 0.405,-2.867 1.121,-3.87c0.715,-1.003 1.689,-1.637 3.148,-1.637l0,0Zm-19.636,1.723c6.054,0 11.099,4.838 11.099,11.295c0,2.384 -1.004,5.039 -2.322,6.665c-1.029,0.711 -2.245,1.166 -3.735,1.301c0.991,-1.416 1.787,-3.314 1.787,-5.621c0,-3.025 -1.096,-5.148 -2.561,-6.439c-1.463,-1.291 -3.226,-1.78 -4.615,-1.78c-3.014,0 -4.776,2.259 -4.776,4.52c0,1.1 0.331,2.228 1.014,3.134c0.684,0.908 1.777,1.554 3.096,1.554c0.003,0 0.008,0 0.011,0c0.468,0 0.854,-0.408 0.854,-0.904c0,-0.496 -0.386,-0.905 -0.854,-0.905c-0.003,0 -0.008,0 -0.012,0.002c-0.817,0 -1.355,-0.337 -1.761,-0.876c-0.405,-0.538 -0.639,-1.298 -0.639,-2.005c0,-1.356 0.787,-2.711 3.067,-2.711c1.003,0 2.425,0.387 3.522,1.355c1.098,0.967 1.947,2.476 1.947,5.055c0,1.9 -0.653,3.457 -1.493,4.632c-0.84,1.176 -1.897,1.952 -2.456,2.231c-0.009,0.009 -0.017,0.019 -0.026,0.028c-0.704,0.374 -2.049,0.682 -3.601,0.875c-0.834,0.103 -1.734,0.168 -2.642,0.226c-0.008,0 -0.018,0 -0.027,0c-0.008,-0.009 -0.017,-0.019 -0.025,-0.028c-3.47,-1.919 -5.791,-5.855 -5.95,-10.336c-0.159,-6.43 5.045,-11.268 11.098,-11.268l0,0Z" style="fill:#fff;fill-rule:nonzero;"/></svg>