<?xml version="1.0" encoding="UTF-8" standalone="no"?>
<!DOCTYPE svg PUBLIC "-//W3C//DTD SVG 1.1//EN" "http://www.w3.org/Graphics/SVG/1.1/DTD/svg11.dtd">
<svg width="100%" height="100%" viewBox="0 0 300 300" version="1.1" xmlns="http://www.w3.org/2000/svg" xmlns:xlink="http://www.w3.org/1999/xlink" xml:space="preserve" style="fill-rule:evenodd;clip-rule:evenodd;stroke-linejoin:round;stroke-miterlimit:1.41421;">
    <g id="node1" transform="matrix(0.1,0,0,-0.1,0,300)">
        <path d="M2599,2524C2588,2511 2589,2503 2605,2474C2622,2443 2623,2424 2616,2237C2612,2126 2605,2010 2602,1980C2595,1925 2595,1925 2537,1895C2458,1853 2422,1817 2384,1735C2353,1671 2292,1448 2275,1343C2271,1319 2265,1300 2261,1300C2253,1300 2232,1350 2164,1530C2112,1669 2047,1805 1992,1890C1834,2132 1580,2260 1254,2260C1051,2260 889,2211 736,2103C596,2003 511,1883 446,1687C401,1552 394,1520 380,1388C362,1208 393,1012 460,880C471,858 480,838 480,835C480,832 416,830 338,830C209,830 190,828 145,806C89,780 43,735 40,705C35,657 41,649 94,624C141,602 168,599 346,590C455,585 610,576 690,570C1117,540 1752,531 2015,551C2164,562 2309,589 2375,617C2488,666 2604,789 2675,935C2731,1051 2752,1133 2755,1245C2756,1345 2766,1371 2825,1435C2942,1564 2964,1602 2962,1687C2961,1764 2928,1827 2863,1873L2819,1905L2824,1985C2828,2064 2842,2161 2875,2350C2887,2420 2896,2449 2911,2459C2922,2467 2930,2484 2930,2501C2930,2523 2924,2531 2905,2536C2890,2540 2873,2537 2865,2530C2847,2515 2845,2479 2861,2463C2869,2455 2869,2437 2860,2398C2853,2369 2840,2305 2829,2255C2755,1902 2764,1926 2703,1922L2653,1919L2646,2181C2640,2435 2640,2444 2660,2465C2671,2477 2680,2493 2680,2501C2680,2538 2624,2554 2599,2524Z" style="fill:white;fill-rule:nonzero;"/>
    </g>
</svg>
