<?xml version="1.0" encoding="UTF-8" standalone="no"?><!DOCTYPE svg PUBLIC "-//W3C//DTD SVG 1.1//EN" "http://www.w3.org/Graphics/SVG/1.1/DTD/svg11.dtd"><svg width="100%" height="100%" viewBox="0 0 50 50" version="1.1" xmlns="http://www.w3.org/2000/svg" xmlns:xlink="http://www.w3.org/1999/xlink" xml:space="preserve" style="fill-rule:evenodd;clip-rule:evenodd;stroke-miterlimit:10;"><circle cx="24.897" cy="24.897" r="23.457" style="fill:#fff;fill-opacity:0;stroke:#51a7f9;stroke-width:1.4px;"/><path d="M32.481,10.728c-1.4,0 -2.009,2.487 -1.096,6.534c-0.709,0.243 -1.302,0.699 -1.72,1.285c-0.627,0.88 -0.911,2.008 -0.911,3.142c0,1.61 -0.158,3.271 -0.539,4.748c0,-4.715 -3.719,-8.283 -8.095,-8.283c-4.376,0 -8.21,3.569 -8.094,8.301c0.094,2.65 1.245,5.061 3.069,6.623c-0.934,0.051 -1.815,0.106 -2.496,0.197c-0.381,0.05 -0.7,0.108 -0.978,0.214c-0.139,0.052 -0.272,0.112 -0.405,0.232c-0.133,0.12 -0.27,0.356 -0.27,0.607c0,0.358 0.191,0.627 0.405,0.821c0.214,0.193 0.479,0.343 0.793,0.482c0.626,0.277 1.474,0.513 2.546,0.714c2.145,0.401 5.156,0.66 8.77,0.66c5.335,0 8.252,-2.087 9.713,-4.73c1.397,-2.527 1.494,-5.425 1.501,-7.462c1.218,-0.722 2.175,-2.056 2.175,-3.624c0,-1.784 -1.158,-3.175 -2.647,-3.784c1.482,-5.294 2.46,-2.219 3.558,-3.767c0.378,-0.514 0.121,-1.246 -0.472,-1.588c-1.294,-0.713 -2.847,1.095 -3.828,5.122c-0.307,-0.066 -0.612,-0.106 -0.928,-0.106c-0.154,0 -0.308,0.017 -0.456,0.035c-1.009,-5.476 1.221,-3.29 1.535,-5.177c0.108,-0.685 -0.428,-1.196 -1.13,-1.196Zm0.051,7.48c1.683,0 3.238,1.284 3.238,2.981c0,1.154 -0.834,2.301 -1.838,2.785c-0.193,0.091 -0.319,0.294 -0.321,0.518c0,2.014 -0.088,4.899 -1.366,7.212c-1.277,2.311 -3.707,4.159 -8.785,4.159c-3.565,0 -6.533,-0.259 -8.585,-0.643c-1.025,-0.192 -1.828,-0.422 -2.326,-0.642c-0.088,-0.039 -0.101,-0.07 -0.169,-0.107c0.123,-0.027 0.191,-0.05 0.354,-0.072c0.686,-0.092 1.672,-0.139 2.732,-0.196c1.06,-0.057 2.206,-0.122 3.238,-0.25c1.026,-0.128 1.927,-0.301 2.614,-0.661c0.003,-0.001 0.013,0.002 0.016,0c0.277,-0.139 0.584,-0.358 0.911,-0.642c0.006,0 0.011,-0.001 0.017,0c1.557,0.087 2.85,-0.292 3.896,-0.982c0.014,-0.01 0.035,-0.008 0.05,-0.018c0.07,-0.028 0.133,-0.07 0.186,-0.125c0.006,-0.005 0.01,-0.013 0.016,-0.018c0.006,-0.006 0.012,-0.011 0.018,-0.018c0.774,-0.576 1.398,-1.336 1.871,-2.213c1.163,-2.156 1.535,-4.957 1.535,-7.587c0,-0.922 0.256,-1.812 0.708,-2.446c0.452,-0.634 1.068,-1.035 1.99,-1.035Zm-12.412,1.089c3.827,0 7.016,3.058 7.016,7.14c0,1.507 -0.635,3.185 -1.468,4.213c-0.65,0.449 -1.419,0.737 -2.361,0.822c0.627,-0.895 1.13,-2.095 1.13,-3.553c0,-1.912 -0.693,-3.254 -1.619,-4.07c-0.925,-0.816 -2.039,-1.125 -2.917,-1.125c-1.905,0 -3.019,1.428 -3.019,2.857c0,0.695 0.209,1.408 0.641,1.981c0.432,0.574 1.123,0.982 1.957,0.982c0.002,0 0.005,0 0.007,0c0.296,0 0.54,-0.258 0.54,-0.571c0,-0.314 -0.244,-0.572 -0.54,-0.572c-0.002,0 -0.005,0 -0.008,0.001c-0.516,0 -0.856,-0.213 -1.113,-0.554c-0.256,-0.34 -0.404,-0.82 -0.404,-1.267c0,-0.857 0.498,-1.714 1.939,-1.714c0.634,0 1.533,0.245 2.226,0.857c0.694,0.611 1.231,1.565 1.231,3.195c0,1.201 -0.413,2.185 -0.944,2.928c-0.531,0.743 -1.199,1.234 -1.552,1.41c-0.006,0.006 -0.011,0.012 -0.017,0.018c-0.445,0.236 -1.295,0.431 -2.276,0.553c-0.527,0.065 -1.096,0.106 -1.67,0.143c-0.005,0 -0.011,0 -0.017,0c-0.005,-0.006 -0.011,-0.012 -0.016,-0.018c-2.193,-1.213 -3.66,-3.701 -3.761,-6.533c-0.1,-4.065 3.189,-7.123 7.015,-7.123Z" style="fill:#51a7f9;fill-rule:nonzero;"/></svg>