<svg viewBox="0 0 50 50" xmlns="http://www.w3.org/2000/svg" fill-rule="evenodd" clip-rule="evenodd" stroke-linejoin="round" stroke-miterlimit="1.414"><path d="M5 5c-2.75 0-5 2.25-5 5v29c0 2.75 2.25 5 5 5h16a3 3 0 0 1 3 3 1.004 1.004 0 0 0 1.875.5A.993.993 0 0 0 26 47a3 3 0 0 1 3-3h16c2.75 0 5-2.25 5-5V10c0-2.75-2.25-5-5-5H29c-1.633 0-3.086.811-4 2.031C24.086 5.811 22.633 5 21 5H5zm0 2h16c1.668 0 3 1.332 3 3v33.125C23.154 42.467 22.15 42 21 42H5c-1.668 0-3-1.332-3-3V10c0-1.668 1.332-3 3-3zm24 0h16c1.668 0 3 1.332 3 3v29c0 1.668-1.332 3-3 3H29c-1.15 0-2.154.467-3 1.125V10c0-1.668 1.332-3 3-3z" fill="#fff" fill-rule="nonzero"/></svg>