<svg viewBox="0 0 26 26" xmlns="http://www.w3.org/2000/svg" fill-rule="evenodd" clip-rule="evenodd" stroke-miterlimit="10"><path d="M20.904 7.498l-8.467 12.418a1.223 1.223 0 0 1-.988.565c-.423 0-.846-.283-1.128-.424l-4.939-4.939c-.283-.282-.283-.846 0-1.27l1.27-1.27c.282-.282.846-.282 1.129.141l3.245 3.246 6.915-10.301c.282-.424.846-.424 1.129-.283l1.411.988c.564.282.705.706.423 1.129z" fill="#51a7f9" fill-rule="nonzero"/><path d="M20 24H6c-2.2 0-4-1.8-4-4V6c0-2.2 1.8-4 4-4h14c2.2 0 4 1.8 4 4v14c0 2.2-1.8 4-4 4z" fill="none" stroke="#51a7f9" stroke-width="2"/></svg>