<svg viewBox="0 0 50 50" xmlns="http://www.w3.org/2000/svg" fill-rule="evenodd" clip-rule="evenodd" stroke-miterlimit="1.414"><circle cx="25" cy="25" r="21" fill="none" stroke-width="2" stroke="#51a7f9"/><path d="M23.094 33.834l-7.85 2.304 2.304-7.85" fill="none" stroke-width="1.95" stroke-linecap="round" stroke-linejoin="round" stroke="#51a7f9"/><path d="M16.05 32.384l-.86 2.93a.712.712 0 0 0 .178.7.711.711 0 0 0 .7.179l2.93-.86-2.948-2.95z" fill="#51a7f9" fill-rule="nonzero"/><path d="M19.33 30.058l1.598.358.23 1.468L32.152 20.9l-1.826-1.828L19.33 30.058z" fill="#51a7f9" fill-rule="nonzero" stroke-linejoin="round" stroke="#51a7f9"/><path d="M33.358 22.083l-11.08 11.069 1.424 1.424L34.825 23.55l-1.467-1.467zM29.24 17.965l-1.31-1.31L16.808 27.68l1.354 1.354 11.079-11.07z" fill="#51a7f9" fill-rule="nonzero"/><g><path d="M35.848 22.083l-6.607-6.608 1.014-1.025c.902-.902 2.373-.895 3.285.018l3.305 3.304c.912.913.92 2.384.018 3.286l-1.015 1.025z" fill="#51a7f9" fill-rule="nonzero"/></g></svg>