<svg viewBox="0 0 26 26" xmlns="http://www.w3.org/2000/svg" fill-rule="evenodd" clip-rule="evenodd" stroke-linecap="round" stroke-linejoin="round" stroke-miterlimit="1.414"><path d="M8.938 22.608l-7.85 2.304 2.304-7.849" fill="none" stroke-width="1.95" stroke="#51a7f9"/><path d="M1.894 21.158l-.86 2.931a.712.712 0 0 0 .178.7.711.711 0 0 0 .7.178l2.931-.86-2.949-2.949z" fill="#51a7f9" fill-rule="nonzero" stroke-linecap="butt" stroke="#51a7f9"/><path d="M5.175 18.832l1.597.358.23 1.468L17.996 9.674 16.17 7.846 5.175 18.832zm14.027-7.975L8.123 21.926l1.423 1.424 11.123-11.026-1.467-1.467zm-4.117-4.118L13.774 5.43 2.652 16.454l1.354 1.354L15.085 6.739zm6.581 4.49l-6.895-6.895 1.578-1.479 6.894 6.895-1.577 1.479z" fill="#51a7f9" fill-rule="nonzero"/><path d="M24.061 8.548L17.454 1.94 18.468.915c.902-.902 2.373-.895 3.285.018l3.305 3.304c.912.913.92 2.384.018 3.286l-1.015 1.025z" fill="#51a7f9" fill-rule="nonzero" stroke-linecap="butt" stroke="#51a7f9"/></svg>