<svg viewBox="0 0 50 50" xmlns="http://www.w3.org/2000/svg" fill-rule="evenodd" clip-rule="evenodd" stroke-miterlimit="10"><circle cx="24.897" cy="24.856" r="23.457" fill="none" stroke="#51a7f9" stroke-width="1.4"/><path d="M22.444 33.264l-7.85 2.304 2.304-7.849" fill="none" stroke="#51a7f9" stroke-width="1.95" stroke-linecap="round" stroke-linejoin="round" stroke-miterlimit="1.414"/><path d="M15.4 31.814l-.86 2.931a.712.712 0 0 0 .178.7.711.711 0 0 0 .7.178l2.931-.86-2.949-2.949z" fill="#51a7f9" fill-rule="nonzero"/><path d="M18.681 29.488l1.597.358.23 1.468L31.502 20.33l-1.826-1.828-10.995 10.986z" fill="#51a7f9" fill-rule="nonzero" stroke="#51a7f9" stroke-linejoin="round" stroke-miterlimit="1.414"/><path d="M32.708 21.513L21.629 32.582l1.423 1.424L34.175 22.98l-1.467-1.467zM28.591 17.395l-1.311-1.309L16.158 27.11l1.354 1.354 11.079-11.069zM35.198 21.513l-6.607-6.608 1.014-1.025c.902-.902 2.373-.895 3.285.018l3.305 3.304c.912.913.92 2.384.018 3.286l-1.015 1.025z" fill="#51a7f9" fill-rule="nonzero"/></svg>