<svg viewBox="0 0 50 50" xmlns="http://www.w3.org/2000/svg" fill-rule="evenodd" clip-rule="evenodd" stroke-linejoin="round" stroke-miterlimit="1.414"><path d="M24.813.063a1 1 0 0 0-.532.312L.375 25.25a1.003 1.003 0 0 0-.272.688 1.01 1.01 0 0 0 1.006 1.006c.278 0 .545-.116.735-.319L5 23.344V50h40V23.344l3.156 3.281c.19.203.457.319.735.319a1.01 1.01 0 0 0 1.006-1.006c0-.256-.097-.502-.272-.688L25.719.375a1 1 0 0 0-.906-.312zM25 2.5l18 18.75V48H32V27H18v21H7V21.25L25 2.5zM35 5v3.031l2 2.063V7h2v5.188l2 2.093V5h-6zM20 29h10v19H20V29z" fill="#fff" fill-rule="nonzero"/></svg>