<svg viewBox="0 0 50 50" xmlns="http://www.w3.org/2000/svg" fill-rule="evenodd" clip-rule="evenodd" stroke-linecap="round" stroke-miterlimit="1.414"><path d="M18 39v4c0 1.1.9 2 2 2h10c1.1 0 2-.9 2-2v-4H18z" fill="none" stroke-width="2" stroke="#fff"/><path d="M32 39v-6c0-5.385 7-5.568 7-15 0-7.733-6.268-14-14-14s-14 6.267-14 14c0 9.633 7 10.692 7 15v6" fill="none" stroke-width="2" stroke-linecap="butt" stroke-linejoin="round" stroke="#fff"/><path d="M28 45a3.001 3.001 0 0 1-6 0" fill="none" stroke-width="2" stroke="#fff"/><path d="M25 23v13" fill="none" stroke-width="2" stroke-linecap="butt" stroke="#fff"/><path d="M21 19l4 4 4-4" fill="none" stroke-width="2" stroke="#fff"/></svg>