<svg viewBox="0 0 50 50" xmlns="http://www.w3.org/2000/svg" fill-rule="evenodd" clip-rule="evenodd" stroke-linecap="round" stroke-linejoin="round" stroke-miterlimit="1.414"><g fill="none" stroke="#fff"><path d="M29.007 43.561c-2.152 0-3.896 1.996-3.896 4.419V7.112c0-2.439 1.744-4.418 3.896-4.418h15.582c2.152 0 3.896 1.979 3.896 4.418v32.031c0 2.441-1.744 4.418-3.896 4.418H29.007zM21.215 43.561c2.152 0 3.896 1.996 3.896 4.419V7.112c0-2.439-1.744-4.418-3.896-4.418H5.631c-2.15 0-3.894 1.979-3.894 4.418v32.031c0 2.441 1.744 4.418 3.894 4.418h15.584z" stroke-width="2.07"/><path d="M30.655 17.664h12.286" stroke-width="1.95"/><g stroke-width="1.95"><path d="M30.655 12.404h12.286M30.655 17.664h12.286M7.279 17.664h12.288M7.279 12.404h12.288"/></g><g stroke-width="1.95"><path d="M30.655 12.404h12.286M30.655 17.664h12.286M7.279 17.664h12.288M7.279 12.404h12.288"/></g><path d="M7.279 17.664h12.288" stroke-width="1.95"/></g></svg>