<svg viewBox="0 0 50 50" xmlns="http://www.w3.org/2000/svg" fill-rule="evenodd" clip-rule="evenodd" stroke-miterlimit="1.414"><circle cx="25" cy="25" r="21" fill="none" stroke="#51a7f9" stroke-width="2"/><g fill="none" stroke="#51a7f9" stroke-linecap="round" stroke-linejoin="round"><path d="M27.14 35.296c-1.144 0-2.071 1.005-2.071 2.225V16.947c0-1.228.927-2.224 2.071-2.224h8.283c1.144 0 2.071.996 2.071 2.224v16.125c0 1.229-.927 2.224-2.071 2.224H27.14z" stroke-width="1.07"/><path d="M22.998 35.296c1.144 0 2.071 1.005 2.071 2.225V16.947c0-1.228-.927-2.224-2.071-2.224h-8.284c-1.143 0-2.07.996-2.07 2.224v16.125c0 1.229.927 2.224 2.07 2.224h8.284z" stroke-width="1.07"/><path d="M28.016 22.259h6.531M28.016 19.611h6.531M15.59 22.259h6.532M15.59 19.611h6.532" stroke-width="1.01"/></g></svg>