<svg viewBox="0 0 50 50" xmlns="http://www.w3.org/2000/svg" fill-rule="evenodd" clip-rule="evenodd" stroke-linecap="round" stroke-linejoin="round" stroke-miterlimit="1.414"><path d="M29 43a4.01 4.01 0 0 0-4 4V10a4 4 0 0 1 4-4h16a4 4 0 0 1 4 4v29a4 4 0 0 1-4 4H29zm-8 0c2.209 0 4 1.806 4 4V10a4 4 0 0 0-4-4H5a4 4 0 0 0-4 4v29a4 4 0 0 0 4 4h16z" fill="none" stroke-width="2" stroke="#fff" transform="matrix(1 0 0 1.12327 0 -4.674)"/><path d="M5.068 18.409h14.686" fill="none" stroke-width="2.15" stroke="#fff" transform="matrix(.85905 0 0 1 26.338 -1.12)"/><path d="M5.068 18.409h14.686" fill="none" stroke-width="2.15" stroke="#fff" transform="matrix(.85905 0 0 1 26.338 -6.469)"/><path d="M5.068 18.409h14.686" fill="none" stroke-width="2.15" stroke="#fff" transform="matrix(.85905 0 0 1 2.338 -1.12)"/><path d="M5.068 18.409h14.686" fill="none" stroke-width="2.15" stroke="#fff" transform="matrix(.85905 0 0 1 2.338 -6.469)"/></svg>