<svg viewBox="0 0 300 300" xmlns="http://www.w3.org/2000/svg" fill-rule="evenodd" clip-rule="evenodd" stroke-linejoin="round" stroke-miterlimit="1.414"><path d="M259.9 47.6c-1.1 1.3-1 2.1.6 5 1.7 3.1 1.8 5 1.1 23.7-.4 11.1-1.1 22.7-1.4 25.7-.7 5.5-.7 5.5-6.5 8.5-7.9 4.2-11.5 7.8-15.3 16-3.1 6.4-9.2 28.7-10.9 39.2-.4 2.4-1 4.3-1.4 4.3-.8 0-2.9-5-9.7-23-5.2-13.9-11.7-27.5-17.2-36-15.8-24.2-41.2-37-73.8-37-20.3 0-36.5 4.9-51.8 15.7-14 10-22.5 22-29 41.6-4.5 13.5-5.2 16.7-6.6 29.9-1.8 18 1.3 37.6 8 50.8 1.1 2.2 2 4.2 2 4.5 0 .3-6.4.5-14.2.5-12.9 0-14.8.2-19.3 2.4C8.9 222 4.3 226.5 4 229.5c-.5 4.8.1 5.6 5.4 8.1 4.7 2.2 7.4 2.5 25.2 3.4 10.9.5 26.4 1.4 34.4 2 42.7 3 106.2 3.9 132.5 1.9 14.9-1.1 29.4-3.8 36-6.6 11.3-4.9 22.9-17.2 30-31.8 5.6-11.6 7.7-19.8 8-31 .1-10 1.1-12.6 7-19 11.7-12.9 13.9-16.7 13.7-25.2-.1-7.7-3.4-14-9.9-18.6l-4.4-3.2.5-8c.4-7.9 1.8-17.6 5.1-36.5 1.2-7 2.1-9.9 3.6-10.9 1.1-.8 1.9-2.5 1.9-4.2 0-2.2-.6-3-2.5-3.5-1.5-.4-3.2-.1-4 .6-1.8 1.5-2 5.1-.4 6.7.8.8.8 2.6-.1 6.5-.7 2.9-2 9.3-3.1 14.3-7.4 35.3-6.5 32.9-12.6 33.3l-5 .3-.7-26.2c-.6-25.4-.6-26.3 1.4-28.4 1.1-1.2 2-2.8 2-3.6 0-3.7-5.6-5.3-8.1-2.3z" fill="#fff" fill-rule="nonzero"/></svg>