<svg viewBox="0 0 50 50" xmlns="http://www.w3.org/2000/svg" fill-rule="evenodd" clip-rule="evenodd" stroke-miterlimit="10"><circle cx="25" cy="25" r="21" fill="#51a7f9" stroke="#51a7f9" stroke-width="2" transform="translate(-3.028 -3.028) scale(1.11701)"/><path d="M31.652 11.528c-1.357 0-1.947 2.41-1.062 6.333a3.396 3.396 0 0 0-1.667 1.246c-.608.852-.883 1.946-.883 3.045 0 1.56-.154 3.17-.523 4.602 0-4.57-3.604-8.028-7.845-8.028-4.242 0-7.958 3.459-7.846 8.045.092 2.569 1.207 4.906 2.975 6.42-.905.05-1.76.102-2.419.19-.37.05-.679.105-.948.208-.135.05-.263.108-.392.224a.842.842 0 0 0-.262.589c0 .347.185.608.392.796.207.187.465.332.769.467.607.268 1.428.497 2.468.692 2.078.39 4.997.64 8.5.64 5.171 0 7.998-2.023 9.414-4.585 1.354-2.45 1.448-5.258 1.454-7.232 1.181-.7 2.109-1.993 2.109-3.512 0-1.73-1.123-3.078-2.566-3.668 1.437-5.132 2.385-2.15 3.449-3.651.366-.499.117-1.208-.458-1.54-1.254-.69-2.76 1.061-3.71 4.965a4.189 4.189 0 0 0-.9-.103 3.5 3.5 0 0 0-.44.034c-.98-5.308 1.182-3.188 1.487-5.017.104-.665-.416-1.16-1.096-1.16zm.05 7.25c1.63 0 3.138 1.245 3.138 2.89 0 1.118-.808 2.23-1.782 2.699a.556.556 0 0 0-.31.501c0 1.953-.086 4.75-1.324 6.99-1.239 2.241-3.593 4.032-8.516 4.032-3.454 0-6.332-.251-8.32-.623-.994-.186-1.772-.41-2.255-.623-.085-.038-.098-.068-.164-.104.12-.025.185-.048.344-.069.665-.089 1.62-.135 2.647-.19 1.028-.056 2.139-.119 3.139-.243.994-.123 1.868-.292 2.533-.64.003-.002.013.002.016 0a4.42 4.42 0 0 0 .883-.623h.017c1.509.085 2.762-.283 3.775-.952.015-.009.035-.007.049-.017a.518.518 0 0 0 .18-.12c.006-.005.01-.014.016-.018l.017-.017c.75-.559 1.356-1.296 1.814-2.146 1.127-2.09 1.487-4.804 1.487-7.353 0-.894.249-1.756.687-2.37.438-.615 1.035-1.004 1.929-1.004zm-12.03 1.055c3.709 0 6.8 2.965 6.8 6.921 0 1.46-.616 3.087-1.423 4.083-.63.435-1.376.714-2.288.797a5.958 5.958 0 0 0 1.095-3.444c0-1.853-.672-3.153-1.57-3.944a4.352 4.352 0 0 0-2.827-1.09c-1.846 0-2.926 1.384-2.926 2.768 0 .673.203 1.364.622 1.92a2.358 2.358 0 0 0 1.896.952h.007c.287 0 .523-.25.523-.554 0-.304-.236-.554-.523-.554h-.008c-.5 0-.83-.206-1.078-.536a2.117 2.117 0 0 1-.393-1.228c0-.83.484-1.661 1.88-1.661.614 0 1.486.237 2.158.83.672.593 1.193 1.518 1.193 3.097a4.83 4.83 0 0 1-.915 2.838c-.515.72-1.163 1.196-1.504 1.367a.245.245 0 0 0-.016.017c-.432.229-1.256.418-2.207.537a28.403 28.403 0 0 1-1.635.138.514.514 0 0 0-.016-.018c-2.125-1.176-3.547-3.587-3.645-6.332-.097-3.94 3.09-6.904 6.8-6.904z" fill="#fff" fill-rule="nonzero"/></svg>