<svg viewBox="0 0 50 50" xmlns="http://www.w3.org/2000/svg" fill-rule="evenodd" clip-rule="evenodd" stroke-linejoin="round" stroke-miterlimit="1.414"><path d="M37.794 4.698c-2.215 0-3.178 3.935-1.734 10.337a5.553 5.553 0 0 0-2.721 2.033c-.992 1.392-1.441 3.177-1.441 4.971 0 2.547-.25 5.175-.853 7.511 0-7.459-5.883-13.104-12.806-13.104-6.923 0-12.989 5.647-12.805 13.133.148 4.192 1.969 8.007 4.855 10.478-1.478.08-2.871.167-3.949.311-.603.079-1.107.171-1.547.339-.22.082-.43.177-.641.367-.21.19-.427.563-.427.96 0 .567.302.992.641 1.299.338.305.758.543 1.254.763.991.438 2.332.811 4.028 1.129 3.394.635 8.157 1.044 13.875 1.044 8.44 0 13.055-3.301 15.366-7.483 2.21-3.998 2.363-8.582 2.375-11.805 1.926-1.142 3.44-3.253 3.44-5.733 0-2.822-1.832-5.023-4.187-5.987 2.344-8.375 3.892-3.51 5.629-5.959.598-.813.191-1.971-.747-2.512-2.047-1.128-4.504 1.732-6.056 8.103a6.891 6.891 0 0 0-1.468-.168 5.91 5.91 0 0 0-.722.056c-1.596-8.664 1.932-5.205 2.429-8.191.171-1.083-.677-1.892-1.788-1.892zm.081 11.834c2.662 0 5.122 2.031 5.122 4.716 0 1.826-1.319 3.64-2.907 4.406a.91.91 0 0 0-.508.819c0 3.187-.139 7.751-2.161 11.41-2.02 3.656-5.865 6.58-13.898 6.58-5.64 0-10.336-.41-13.582-1.018-1.622-.303-2.892-.667-3.68-1.015-.139-.062-.16-.111-.267-.17.194-.042.302-.079.56-.113 1.085-.146 2.645-.22 4.322-.311 1.677-.09 3.49-.193 5.122-.395 1.624-.203 3.049-.476 4.136-1.046.005-.001.02.003.025 0 .438-.22.924-.566 1.441-1.015.01 0 .018-.002.027 0 2.464.137 4.509-.462 6.164-1.554.022-.016.055-.013.079-.028a.848.848 0 0 0 .294-.198c.01-.008.016-.021.026-.029.009-.009.019-.017.028-.028 1.225-.911 2.212-2.114 2.96-3.501 1.84-3.411 2.428-7.842 2.428-12.003 0-1.459.405-2.867 1.121-3.87.715-1.003 1.689-1.637 3.148-1.637zm-19.636 1.723c6.054 0 11.099 4.838 11.099 11.295 0 2.384-1.004 5.039-2.322 6.665-1.029.711-2.245 1.166-3.735 1.301.991-1.416 1.787-3.314 1.787-5.621 0-3.025-1.096-5.148-2.561-6.439-1.463-1.291-3.226-1.78-4.615-1.78-3.014 0-4.776 2.259-4.776 4.52 0 1.1.331 2.228 1.014 3.134a3.85 3.85 0 0 0 3.096 1.554h.011c.468 0 .854-.408.854-.904 0-.496-.386-.905-.854-.905-.003 0-.008 0-.012.002-.817 0-1.355-.337-1.761-.876-.405-.538-.639-1.298-.639-2.005 0-1.356.787-2.711 3.067-2.711 1.003 0 2.425.387 3.522 1.355 1.098.967 1.947 2.476 1.947 5.055 0 1.9-.653 3.457-1.493 4.632-.84 1.176-1.897 1.952-2.456 2.231l-.026.028c-.704.374-2.049.682-3.601.875-.834.103-1.734.168-2.642.226h-.027l-.025-.028c-3.47-1.919-5.791-5.855-5.95-10.336-.159-6.43 5.045-11.268 11.098-11.268z" fill="#fff" fill-rule="nonzero"/></svg>