<svg viewBox="0 0 50 50" xmlns="http://www.w3.org/2000/svg" fill-rule="evenodd" clip-rule="evenodd" stroke-linejoin="round" stroke-miterlimit="1.414"><path d="M39.906 2c-2.595 0-3.723 4.353-2.031 11.438a6.473 6.473 0 0 0-3.187 2.25C33.525 17.227 33 19.202 33 21.188c0 2.818-.294 5.726-1 8.312C32 21.246 25.109 15 17 15S1.785 21.247 2 29.531c.175 4.639 2.308 8.86 5.688 11.594-1.73.09-3.364.185-4.625.344-.706.089-1.298.19-1.813.375-.257.092-.503.196-.75.406-.247.21-.5.623-.5 1.063 0 .627.354 1.098.75 1.437.396.339.888.601 1.469.844 1.161.485 2.731.898 4.719 1.25 3.974.703 9.554 1.156 16.25 1.156 9.888 0 15.292-3.654 18-8.281 2.588-4.424 2.768-9.496 2.781-13.063C46.227 25.392 48 23.058 48 20.313c0-3.123-2.146-5.559-4.906-6.625 2.747-9.268 4.56-3.884 6.594-6.594.7-.9.225-2.181-.875-2.781-2.398-1.247-5.276 1.917-7.094 8.968A8.457 8.457 0 0 0 40 13.094c-.286 0-.571.03-.844.062C37.285 3.569 41.417 7.397 42 4.094 42.2 2.894 41.206 2 39.906 2zM40 15.094c3.119 0 6 2.248 6 5.219 0 2.02-1.545 4.028-3.406 4.875a1 1 0 0 0-.594.906c0 3.526-.163 8.577-2.531 12.625C37.101 42.766 32.599 46 23.188 46c-6.605 0-12.106-.453-15.907-1.125-1.9-.336-3.389-.739-4.312-1.125-.163-.068-.187-.122-.313-.187.229-.046.354-.087.657-.125 1.271-.161 3.098-.244 5.062-.344 1.964-.1 4.088-.214 6-.438 1.901-.223 3.572-.527 4.844-1.156.006-.003.024.003.031 0 .512-.243 1.081-.627 1.688-1.125h.031c2.885.153 5.282-.511 7.219-1.719.027-.017.066-.014.093-.031a.995.995 0 0 0 .344-.219c.012-.008.019-.023.031-.031l.032-.031c1.435-1.009 2.592-2.34 3.468-3.875C34.311 30.695 35 25.791 35 21.188c0-1.615.475-3.172 1.313-4.282.837-1.11 1.979-1.812 3.687-1.812zM17 17c7.091 0 13 5.354 13 12.5 0 2.638-1.176 5.575-2.719 7.375-1.205.785-2.63 1.289-4.375 1.438C24.068 36.746 25 34.646 25 32.094c0-3.348-1.285-5.696-3-7.125A8.61 8.61 0 0 0 16.594 23C13.064 23 11 25.5 11 28c0 1.217.387 2.465 1.188 3.469a4.598 4.598 0 0 0 3.625 1.719h.014c.548 0 1-.452 1-1 0-.549-.452-1.001-1-1.001l-.015.001c-.956 0-1.587-.373-2.062-.969-.475-.596-.75-1.436-.75-2.219 0-1.5.924-3 3.594-3 1.174 0 2.84.429 4.125 1.5C22.004 27.571 23 29.241 23 32.094c0 2.102-.766 3.824-1.75 5.125-.984 1.301-2.222 2.161-2.875 2.469a.453.453 0 0 0-.031.031c-.826.413-2.4.755-4.219.969a57.414 57.414 0 0 1-3.125.25.95.95 0 0 0-.031-.032C6.905 38.782 4.187 34.427 4 29.469 3.815 22.353 9.909 17 17 17z" fill="#fff" fill-rule="nonzero"/></svg>