<svg viewBox="0 0 50 50" xmlns="http://www.w3.org/2000/svg" fill-rule="evenodd" clip-rule="evenodd" stroke-miterlimit="10"><circle cx="24.897" cy="24.897" r="23.457" fill="none" stroke="#51a7f9" stroke-width="1.4"/><path d="M32.481 10.728c-1.4 0-2.009 2.487-1.096 6.534a3.506 3.506 0 0 0-1.72 1.285c-.627.88-.911 2.008-.911 3.142 0 1.61-.158 3.271-.539 4.748 0-4.715-3.719-8.283-8.095-8.283-4.376 0-8.21 3.569-8.094 8.301.094 2.65 1.245 5.061 3.069 6.623-.934.051-1.815.106-2.496.197-.381.05-.7.108-.978.214a1.18 1.18 0 0 0-.405.232.87.87 0 0 0-.27.607c0 .358.191.627.405.821.214.193.479.343.793.482.626.277 1.474.513 2.546.714 2.145.401 5.156.66 8.77.66 5.335 0 8.252-2.087 9.713-4.73 1.397-2.527 1.494-5.425 1.501-7.462 1.218-.722 2.175-2.056 2.175-3.624 0-1.784-1.158-3.175-2.647-3.784 1.482-5.294 2.46-2.219 3.558-3.767.378-.514.121-1.246-.472-1.588-1.294-.713-2.847 1.095-3.828 5.122a4.38 4.38 0 0 0-.928-.106c-.154 0-.308.017-.456.035-1.009-5.476 1.221-3.29 1.535-5.177.108-.685-.428-1.196-1.13-1.196zm.051 7.48c1.683 0 3.238 1.284 3.238 2.981 0 1.154-.834 2.301-1.838 2.785a.576.576 0 0 0-.321.518c0 2.014-.088 4.899-1.366 7.212-1.277 2.311-3.707 4.159-8.785 4.159-3.565 0-6.533-.259-8.585-.643-1.025-.192-1.828-.422-2.326-.642-.088-.039-.101-.07-.169-.107.123-.027.191-.05.354-.072.686-.092 1.672-.139 2.732-.196 1.06-.057 2.206-.122 3.238-.25 1.026-.128 1.927-.301 2.614-.661.003-.001.013.002.016 0a4.6 4.6 0 0 0 .911-.642h.017c1.557.087 2.85-.292 3.896-.982.014-.01.035-.008.05-.018a.53.53 0 0 0 .186-.125c.006-.005.01-.013.016-.018l.018-.018c.774-.576 1.398-1.336 1.871-2.213 1.163-2.156 1.535-4.957 1.535-7.587 0-.922.256-1.812.708-2.446.452-.634 1.068-1.035 1.99-1.035zM20.12 19.297c3.827 0 7.016 3.058 7.016 7.14 0 1.507-.635 3.185-1.468 4.213-.65.449-1.419.737-2.361.822a6.148 6.148 0 0 0 1.13-3.553c0-1.912-.693-3.254-1.619-4.07a4.49 4.49 0 0 0-2.917-1.125c-1.905 0-3.019 1.428-3.019 2.857 0 .695.209 1.408.641 1.981a2.432 2.432 0 0 0 1.957.982h.007c.296 0 .54-.258.54-.571 0-.314-.244-.572-.54-.572l-.008.001c-.516 0-.856-.213-1.113-.554-.256-.34-.404-.82-.404-1.267 0-.857.498-1.714 1.939-1.714.634 0 1.533.245 2.226.857.694.611 1.231 1.565 1.231 3.195a4.985 4.985 0 0 1-.944 2.928c-.531.743-1.199 1.234-1.552 1.41l-.017.018c-.445.236-1.295.431-2.276.553-.527.065-1.096.106-1.67.143h-.017l-.016-.018c-2.193-1.213-3.66-3.701-3.761-6.533-.1-4.065 3.189-7.123 7.015-7.123z" fill="#51a7f9" fill-rule="nonzero"/></svg>